<svg xmlns="http://www.w3.org/2000/svg" width="75.964" height="68.105" viewBox="0 0 75.964 68.105">
  <g id="inkwell" transform="translate(-24 -47.687)">
    <path id="Path_8" data-name="Path 8" d="M162.619,47.687h26.194a2.619,2.619,0,0,1,2.619,2.619V60.784H160V50.306A2.619,2.619,0,0,1,162.619,47.687Z" transform="translate(-113.735)" fill="#606669"/>
    <g id="Group_7" data-name="Group 7" transform="translate(43.677 47.687)">
      <path id="Path_9" data-name="Path 9" d="M184,47.687h2.619V58.165H184Z" transform="translate(-177.483 -47.687)" fill="#6a7073"/>
      <path id="Path_10" data-name="Path 10" d="M216,47.687h2.619V58.165H216Z" transform="translate(-204.244 -47.687)" fill="#6a7073"/>
      <path id="Path_11" data-name="Path 11" d="M248,47.687h2.619V58.165H248Z" transform="translate(-231.005 -47.687)" fill="#6a7073"/>
      <path id="Path_12" data-name="Path 12" d="M280,47.687h2.619V58.165H280Z" transform="translate(-257.766 -47.687)" fill="#6a7073"/>
      <path id="Path_13" data-name="Path 13" d="M312,47.687h2.619V58.165H312Z" transform="translate(-284.527 -47.687)" fill="#6a7073"/>
      <rect id="Rectangle_1" data-name="Rectangle 1" width="36" height="5" rx="2.5" transform="translate(0.286 11.105)" fill="#6a7073"/>
    </g>
    <path id="Path_14" data-name="Path 14" d="M160,143.687h31.433v11.787H160Z" transform="translate(-113.735 -80.283)" fill="#606669"/>
    <path id="Path_15" data-name="Path 15" d="M99.964,195.333c0,11.787-17.026,27.5-17.026,27.5H41.026S24,207.12,24,195.333c0-17.026,27.5-19.646,37.982-19.646S99.964,178.306,99.964,195.333Z" transform="translate(0 -107.045)" fill="#6a7073"/>
    <path id="Path_16" data-name="Path 16" d="M113.627,264.572c-3.483,4.4-7.858,6.549-10.478,6.549-3.929,0-5.238-2.619-7.858-2.619h-13.1c-2.621,0-3.929,2.619-7.858,2.619-2.619,0-6.993-2.154-10.475-6.549-6.458-8.152-13.868-18.83,0-24.885h49.767C127.5,245.741,120.086,256.421,113.627,264.572Z" transform="translate(-26.761 -160.567)" fill="#7e8488"/>
  </g>
</svg>
